<mxfile host="app.diagrams.net" modified="2023-03-19T07:41:15.210Z" agent="5.0 (X11; Linux x86_64) AppleWebKit/537.36 (KHTML, like Gecko) Chrome/107.0.0.0 Safari/537.36" etag="Fg0H4PMlit2IMjySQem0" version="21.0.6" type="github">
  <diagram id="oUgZe68AtxLmsvxLKYAg" name="EDSArchitecture">
    <mxGraphModel dx="1362" dy="775" grid="1" gridSize="10" guides="1" tooltips="1" connect="1" arrows="1" fold="1" page="1" pageScale="1" pageWidth="850" pageHeight="1100" math="0" shadow="0">
      <root>
        <mxCell id="0" />
        <mxCell id="1" parent="0" />
        <mxCell id="Y-kIf7gnfioniPpgSzdO-1" value="Server" style="rounded=1;whiteSpace=wrap;html=1;" parent="1" vertex="1">
          <mxGeometry x="360" y="360" width="160" height="160" as="geometry" />
        </mxCell>
        <mxCell id="Y-kIf7gnfioniPpgSzdO-2" value="DataBase" style="rounded=1;whiteSpace=wrap;html=1;" parent="1" vertex="1">
          <mxGeometry x="360" y="600" width="160" height="160" as="geometry" />
        </mxCell>
        <mxCell id="Y-kIf7gnfioniPpgSzdO-5" value="ManagerTracking&lt;br&gt;(GUI)&amp;nbsp;" style="rounded=1;whiteSpace=wrap;html=1;" parent="1" vertex="1">
          <mxGeometry x="360" y="120" width="160" height="160" as="geometry" />
        </mxCell>
        <mxCell id="Y-kIf7gnfioniPpgSzdO-7" value="" style="endArrow=classic;startArrow=classic;html=1;rounded=0;entryX=0.5;entryY=0;entryDx=0;entryDy=0;exitX=0.5;exitY=1;exitDx=0;exitDy=0;" parent="1" source="Y-kIf7gnfioniPpgSzdO-1" target="Y-kIf7gnfioniPpgSzdO-2" edge="1">
          <mxGeometry width="50" height="50" relative="1" as="geometry">
            <mxPoint x="650" y="440" as="sourcePoint" />
            <mxPoint x="700" y="390" as="targetPoint" />
          </mxGeometry>
        </mxCell>
        <mxCell id="Y-kIf7gnfioniPpgSzdO-8" value="" style="endArrow=classic;startArrow=classic;html=1;rounded=0;entryX=0.5;entryY=1;entryDx=0;entryDy=0;exitX=0.5;exitY=0;exitDx=0;exitDy=0;" parent="1" source="Y-kIf7gnfioniPpgSzdO-1" target="Y-kIf7gnfioniPpgSzdO-5" edge="1">
          <mxGeometry width="50" height="50" relative="1" as="geometry">
            <mxPoint x="495" y="310" as="sourcePoint" />
            <mxPoint x="545" y="260" as="targetPoint" />
          </mxGeometry>
        </mxCell>
        <mxCell id="Y-kIf7gnfioniPpgSzdO-23" value="&lt;font style=&quot;font-size: 12px;&quot;&gt;REST API&lt;/font&gt;" style="edgeLabel;html=1;align=center;verticalAlign=middle;resizable=0;points=[];" parent="Y-kIf7gnfioniPpgSzdO-8" vertex="1" connectable="0">
          <mxGeometry x="0.45" y="-1" relative="1" as="geometry">
            <mxPoint x="29" y="27" as="offset" />
          </mxGeometry>
        </mxCell>
        <mxCell id="Y-kIf7gnfioniPpgSzdO-9" value="Clien" style="rounded=1;whiteSpace=wrap;html=1;" parent="1" vertex="1">
          <mxGeometry x="80" y="320" width="160" height="160" as="geometry" />
        </mxCell>
        <mxCell id="Y-kIf7gnfioniPpgSzdO-11" value="Clien" style="rounded=1;whiteSpace=wrap;html=1;" parent="1" vertex="1">
          <mxGeometry x="90" y="330" width="160" height="160" as="geometry" />
        </mxCell>
        <mxCell id="Y-kIf7gnfioniPpgSzdO-12" value="Clien" style="rounded=1;whiteSpace=wrap;html=1;" parent="1" vertex="1">
          <mxGeometry x="100" y="340" width="160" height="160" as="geometry" />
        </mxCell>
        <mxCell id="Y-kIf7gnfioniPpgSzdO-13" value="Clien" style="rounded=1;whiteSpace=wrap;html=1;" parent="1" vertex="1">
          <mxGeometry x="110" y="350" width="160" height="160" as="geometry" />
        </mxCell>
        <mxCell id="Y-kIf7gnfioniPpgSzdO-14" value="EmotionDetector" style="rounded=1;whiteSpace=wrap;html=1;" parent="1" vertex="1">
          <mxGeometry x="120" y="360" width="160" height="160" as="geometry" />
        </mxCell>
        <mxCell id="Y-kIf7gnfioniPpgSzdO-16" value="ModelTrainer" style="rounded=1;whiteSpace=wrap;html=1;" parent="1" vertex="1">
          <mxGeometry x="120" y="120" width="160" height="160" as="geometry" />
        </mxCell>
        <mxCell id="Y-kIf7gnfioniPpgSzdO-17" value="" style="endArrow=none;dashed=1;html=1;dashPattern=1 3;strokeWidth=2;rounded=0;entryX=0.5;entryY=1;entryDx=0;entryDy=0;exitX=0.5;exitY=0;exitDx=0;exitDy=0;" parent="1" source="Y-kIf7gnfioniPpgSzdO-14" target="Y-kIf7gnfioniPpgSzdO-16" edge="1">
          <mxGeometry width="50" height="50" relative="1" as="geometry">
            <mxPoint x="300" y="300" as="sourcePoint" />
            <mxPoint x="350" y="250" as="targetPoint" />
          </mxGeometry>
        </mxCell>
        <mxCell id="Y-kIf7gnfioniPpgSzdO-18" value="&lt;font style=&quot;font-size: 12px;&quot;&gt;model.h&lt;/font&gt;" style="edgeLabel;html=1;align=center;verticalAlign=middle;resizable=0;points=[];" parent="Y-kIf7gnfioniPpgSzdO-17" vertex="1" connectable="0">
          <mxGeometry x="0.6125" relative="1" as="geometry">
            <mxPoint x="30" y="-1" as="offset" />
          </mxGeometry>
        </mxCell>
        <mxCell id="Y-kIf7gnfioniPpgSzdO-19" value="" style="endArrow=none;dashed=1;html=1;dashPattern=1 3;strokeWidth=2;rounded=0;entryX=0.5;entryY=1;entryDx=0;entryDy=0;exitX=0.5;exitY=0;exitDx=0;exitDy=0;" parent="1" source="Y-kIf7gnfioniPpgSzdO-13" target="Y-kIf7gnfioniPpgSzdO-16" edge="1">
          <mxGeometry width="50" height="50" relative="1" as="geometry">
            <mxPoint x="120" y="280" as="sourcePoint" />
            <mxPoint x="170" y="230" as="targetPoint" />
          </mxGeometry>
        </mxCell>
        <mxCell id="Y-kIf7gnfioniPpgSzdO-20" value="" style="endArrow=none;dashed=1;html=1;dashPattern=1 3;strokeWidth=2;rounded=0;entryX=0.5;entryY=1;entryDx=0;entryDy=0;exitX=0.5;exitY=0;exitDx=0;exitDy=0;" parent="1" source="Y-kIf7gnfioniPpgSzdO-12" target="Y-kIf7gnfioniPpgSzdO-16" edge="1">
          <mxGeometry width="50" height="50" relative="1" as="geometry">
            <mxPoint x="50" y="340" as="sourcePoint" />
            <mxPoint x="60" y="190" as="targetPoint" />
          </mxGeometry>
        </mxCell>
        <mxCell id="Y-kIf7gnfioniPpgSzdO-21" value="" style="endArrow=none;dashed=1;html=1;dashPattern=1 3;strokeWidth=2;rounded=0;exitX=0.5;exitY=0;exitDx=0;exitDy=0;entryX=0.5;entryY=1;entryDx=0;entryDy=0;" parent="1" source="Y-kIf7gnfioniPpgSzdO-11" target="Y-kIf7gnfioniPpgSzdO-16" edge="1">
          <mxGeometry width="50" height="50" relative="1" as="geometry">
            <mxPoint x="210" y="370" as="sourcePoint" />
            <mxPoint x="200" y="200" as="targetPoint" />
          </mxGeometry>
        </mxCell>
        <mxCell id="Y-kIf7gnfioniPpgSzdO-22" value="" style="endArrow=none;dashed=1;html=1;dashPattern=1 3;strokeWidth=2;rounded=0;entryX=0.5;entryY=1;entryDx=0;entryDy=0;exitX=0.5;exitY=0;exitDx=0;exitDy=0;" parent="1" source="Y-kIf7gnfioniPpgSzdO-9" target="Y-kIf7gnfioniPpgSzdO-16" edge="1">
          <mxGeometry width="50" height="50" relative="1" as="geometry">
            <mxPoint x="220" y="380" as="sourcePoint" />
            <mxPoint x="230" y="230" as="targetPoint" />
          </mxGeometry>
        </mxCell>
        <mxCell id="Y-kIf7gnfioniPpgSzdO-24" value="&lt;font style=&quot;font-size: 12px;&quot;&gt;UDP&lt;/font&gt;" style="edgeLabel;html=1;align=center;verticalAlign=middle;resizable=0;points=[];" parent="1" vertex="1" connectable="0">
          <mxGeometry x="340" y="430" as="geometry">
            <mxPoint x="-22" as="offset" />
          </mxGeometry>
        </mxCell>
        <mxCell id="Y-kIf7gnfioniPpgSzdO-26" value="python" style="text;html=1;strokeColor=none;fillColor=none;align=center;verticalAlign=middle;whiteSpace=wrap;rounded=0;" parent="1" vertex="1">
          <mxGeometry x="220" y="490" width="60" height="30" as="geometry" />
        </mxCell>
        <mxCell id="Y-kIf7gnfioniPpgSzdO-27" value="python" style="text;html=1;strokeColor=none;fillColor=none;align=center;verticalAlign=middle;whiteSpace=wrap;rounded=0;" parent="1" vertex="1">
          <mxGeometry x="220" y="250" width="60" height="30" as="geometry" />
        </mxCell>
        <mxCell id="Y-kIf7gnfioniPpgSzdO-28" value="C++" style="text;html=1;strokeColor=none;fillColor=none;align=center;verticalAlign=middle;whiteSpace=wrap;rounded=0;" parent="1" vertex="1">
          <mxGeometry x="460" y="490" width="60" height="30" as="geometry" />
        </mxCell>
        <mxCell id="Y-kIf7gnfioniPpgSzdO-29" value="PostgreSQL" style="text;html=1;strokeColor=none;fillColor=none;align=center;verticalAlign=middle;whiteSpace=wrap;rounded=0;" parent="1" vertex="1">
          <mxGeometry x="450" y="730" width="60" height="30" as="geometry" />
        </mxCell>
        <mxCell id="Y-kIf7gnfioniPpgSzdO-30" value="python?" style="text;html=1;strokeColor=none;fillColor=none;align=center;verticalAlign=middle;whiteSpace=wrap;rounded=0;" parent="1" vertex="1">
          <mxGeometry x="460" y="250" width="60" height="30" as="geometry" />
        </mxCell>
        <mxCell id="Y-kIf7gnfioniPpgSzdO-31" value="SelfTracking&lt;br&gt;(MobileApp)&amp;nbsp;" style="rounded=1;whiteSpace=wrap;html=1;" parent="1" vertex="1">
          <mxGeometry x="600" y="360" width="160" height="160" as="geometry" />
        </mxCell>
        <mxCell id="Y-kIf7gnfioniPpgSzdO-32" value="" style="endArrow=classic;startArrow=classic;html=1;rounded=0;entryX=1;entryY=0.5;entryDx=0;entryDy=0;exitX=0;exitY=0.5;exitDx=0;exitDy=0;" parent="1" source="Y-kIf7gnfioniPpgSzdO-31" target="Y-kIf7gnfioniPpgSzdO-1" edge="1">
          <mxGeometry width="50" height="50" relative="1" as="geometry">
            <mxPoint x="630" y="380" as="sourcePoint" />
            <mxPoint x="630" y="260" as="targetPoint" />
          </mxGeometry>
        </mxCell>
        <mxCell id="Y-kIf7gnfioniPpgSzdO-33" value="&lt;font style=&quot;font-size: 12px;&quot;&gt;???&lt;/font&gt;" style="edgeLabel;html=1;align=center;verticalAlign=middle;resizable=0;points=[];" parent="Y-kIf7gnfioniPpgSzdO-32" vertex="1" connectable="0">
          <mxGeometry x="0.45" y="-1" relative="1" as="geometry">
            <mxPoint x="18" y="-9" as="offset" />
          </mxGeometry>
        </mxCell>
        <mxCell id="Y-kIf7gnfioniPpgSzdO-35" value="???" style="text;html=1;strokeColor=none;fillColor=none;align=center;verticalAlign=middle;whiteSpace=wrap;rounded=0;" parent="1" vertex="1">
          <mxGeometry x="700" y="490" width="60" height="30" as="geometry" />
        </mxCell>
        <mxCell id="E8hMq3iIeqG5ay1sPcPa-1" value="" style="endArrow=classic;html=1;rounded=0;exitX=1;exitY=0.5;exitDx=0;exitDy=0;entryX=0;entryY=0.5;entryDx=0;entryDy=0;" edge="1" parent="1" source="Y-kIf7gnfioniPpgSzdO-14" target="Y-kIf7gnfioniPpgSzdO-1">
          <mxGeometry width="50" height="50" relative="1" as="geometry">
            <mxPoint x="400" y="420" as="sourcePoint" />
            <mxPoint x="450" y="370" as="targetPoint" />
          </mxGeometry>
        </mxCell>
      </root>
    </mxGraphModel>
  </diagram>
</mxfile>
